# xmcd
#
# Track frame offsets:
#	150
#	21800
#	43376
#	70127
#	80903
#	96430
#	114991
#	130823
#	150541
#	166938
#	182322
#	201931
#	235739
#	255575
#	272695
#	311831
#
# Disc length: 4602 seconds
#
# Revision: 0
# Processed by: cddbd v1.5.2PL0 Copyright (c) Steve Scherf et al.
# Submitted via: audiograbber 1.81.03
#
DISCID=d911f810
DTITLE=Gamba de legn - 20 ann
DYEAR=2007
DGENRE=Blues
TTITLE0=La belessa dal mund
TTITLE1=Barbera
TTITLE2=Baby a ciuli pocc
TTITLE3=Nino
TTITLE4=La sciura Pina
TTITLE5=Sum in l'ari
TTITLE6=Molta
TTITLE7=Giuan e Batista
TTITLE8=I castegn de la Mangiabala
TTITLE9=Cerri Barbell
TTITLE10=Car al me nan
TTITLE11=Panzaniga
TTITLE12=Nostrana
TTITLE13=Il pittore e il poeta
TTITLE14=Ventre di Venere
TTITLE15=Video di Ventre di Venere
EXTD=
EXTT0=
EXTT1=
EXTT2=
EXTT3=
EXTT4=
EXTT5=
EXTT6=
EXTT7=
EXTT8=
EXTT9=
EXTT10=
EXTT11=
EXTT12=
EXTT13=
EXTT14=
EXTT15=
PLAYORDER=
